<svg xmlns="http://www.w3.org/2000/svg" viewBox="0 0 1267.84 216.95"><defs><style>.cls-1{fill:#d6d7d8;}.cls-2{fill:#198754;}</style></defs><g id="Capa_2" data-name="Capa 2"><g id="Capa_1-2" data-name="Capa 1"><path class="cls-1" d="M169.26,216.72c-7.84-11.72-15.45-23-23-34.41a3.09,3.09,0,0,0-3-1.51q-22.18,0-44.37,0a3.42,3.42,0,0,0-3.3,1.64c-7.53,11.36-15.12,22.68-22.89,34.29Z"/><path class="cls-2" d="M193.58,120.49q0,40,0,80.08c0,10.27,6.1,16.37,16.36,16.37h64.4c9.8,0,16.06-6.24,16.06-16q0-80.41,0-160.82c0-9.78-6.24-16-16-16.06Q242,24,209.63,24c-9.81,0-16,6.26-16,16Zm72.71,54.44a5.82,5.82,0,0,1,5.62-6.1,6.07,6.07,0,0,1,6.41,5.75,6.31,6.31,0,0,1-6.06,6.22A6.07,6.07,0,0,1,266.29,174.93ZM205.65,81.77a39.91,39.91,0,0,0,0-7c-.17-2.15.67-2.57,2.65-2.57q33.69.1,67.38,0c2,0,2.86.37,2.67,2.54a35.39,35.39,0,0,0,0,6.67c.25,2.46-.79,2.9-3,2.88-11.12-.09-22.24,0-33.36,0s-22.46,0-33.69,0C206.38,84.31,205.45,84,205.65,81.77ZM209,36c11,.18,22,.07,33,.07s22.23,0,33.34-.05c2.2,0,3.09.38,3,2.85-.19,6.22-.15,12.45,0,18.67,0,2-.42,2.65-2.53,2.64q-33.84-.12-67.67,0c-2.2,0-2.53-.74-2.49-2.68.12-6,.19-12,0-18C205.53,36.82,206.16,36,209,36Z"/><path class="cls-1" d="M0,152.86c0,9.53,6.25,15.89,15.86,15.91q49.56.09,99.12,0c21.13,0,42.27,0,63.4.08,2.69,0,3.27-.76,3.23-3.32q-.21-15.67,0-31.36c0-2.63-.64-3.28-3.29-3.28-54.17.09-108.35,0-162.52.13-3,0-3.81-.7-3.8-3.77Q12.2,71.39,12,15.5c0-3.09.92-3.53,3.69-3.53q111.3.12,222.59.07h3.26C239.9,4.85,234.47.27,227.62,0H15.71C6.35,0,0,6.35,0,15.71Q0,84.28,0,152.86Zm115-2.17a6,6,0,0,1,5.92-6,5.8,5.8,0,0,1,6.08,5.73,6,6,0,0,1-6,6.22A6.19,6.19,0,0,1,115,150.69Z"/><path class="cls-2" d="M325.52,78.93h50.69A17.16,17.16,0,0,1,393.1,95.82v5.85a16.76,16.76,0,0,1-4.66,11.51,18.06,18.06,0,0,1,4.66,12v5.94A16.06,16.06,0,0,1,387,144a16.43,16.43,0,0,1-10.77,3.93h-51.6V105.41h51.6V94.82H325.52ZM341.41,132h34.8V121.4h-34.8Z"/><path class="cls-2" d="M425.07,95.92H399.13V79h25.94v-.09H442V79h26v16.9H442v52H425.07Z"/><path class="cls-1" d="M550.73,122.49h16.81V131a15.9,15.9,0,0,1-6.12,12.87,16.34,16.34,0,0,1-10.69,3.93H515.94a15.92,15.92,0,0,1-12.88-6.12A16.31,16.31,0,0,1,499.13,131V95.82a17,17,0,0,1,16.81-16.89h34.79a16.08,16.08,0,0,1,12.88,6.12,16.43,16.43,0,0,1,3.93,10.77v8.41H550.73V94.82H515.94V131.9h34.79Z"/><path class="cls-1" d="M573.38,131V95.82a17,17,0,0,1,16.81-16.89H625a16.08,16.08,0,0,1,12.88,6.12,16.43,16.43,0,0,1,3.93,10.77V131a15.9,15.9,0,0,1-6.12,12.87A16.34,16.34,0,0,1,625,147.79H590.19a15.92,15.92,0,0,1-12.88-6.12A16.31,16.31,0,0,1,573.38,131Zm16.81-36.17V131.9H625V94.82Z"/><path class="cls-1" d="M717.32,147.88V103.4l-15.44,22.11H681.42l-15.52-22.2v44.57H649.09V78.93h20.46l22.1,31.78,22.1-31.78h20.46l-.09.09v68.86Z"/><path class="cls-1" d="M743,94.82V78.93h50.41a16.08,16.08,0,0,1,12.88,6.12,16.43,16.43,0,0,1,3.93,10.77V106.6a17,17,0,0,1-16.81,16.9H758.87v24.38h-16.8V107.61h51.32V94.82Z"/><path class="cls-1" d="M884.9,78.93V131a16.08,16.08,0,0,1-6.12,12.87A16.41,16.41,0,0,1,868,147.79h-34.8a15.92,15.92,0,0,1-12.88-6.12A16.36,16.36,0,0,1,816.41,131V78.93h16.8v53H868v-53Z"/><path class="cls-1" d="M917.87,95.92H891.94V79h25.93v-.09h16.9V79h26v16.9h-26v52h-16.9Z"/><path class="cls-1" d="M950.39,147.88,977,78.93h18l-16.62,43.29h15.35l-3-7.76,9-23.38,21.92,56.8h-18.08l-3.75-9.68H972.12l-3.74,9.68Z"/><path class="cls-1" d="M1076,122.49h16.81V131a15.9,15.9,0,0,1-6.12,12.87,16.34,16.34,0,0,1-10.69,3.93h-34.79a15.92,15.92,0,0,1-12.88-6.12,16.31,16.31,0,0,1-3.93-10.68V95.82a17,17,0,0,1,16.81-16.89H1076a16.08,16.08,0,0,1,12.88,6.12,16.43,16.43,0,0,1,3.93,10.77v8.41H1076V94.82h-34.79V131.9H1076Z"/><path class="cls-1" d="M1100,78.93h16.81v68.95H1100Z"/><path class="cls-1" d="M1123.82,131V95.82a17,17,0,0,1,16.8-16.89h34.8a16.08,16.08,0,0,1,12.87,6.12,16.43,16.43,0,0,1,3.93,10.77V131a15.9,15.9,0,0,1-6.12,12.87,16.31,16.31,0,0,1-10.68,3.93h-34.8a15.92,15.92,0,0,1-12.88-6.12A16.36,16.36,0,0,1,1123.82,131Zm16.8-36.17V131.9h34.8V94.82Z"/><path class="cls-1" d="M1216.33,103.31v44.57h-16.8V78.93H1220l30.87,44.57V78.93h16.89v68.86l.09.09h-20.55Z"/></g></g></svg>